PathFileType	4	(X/Y/Z)	C:\Data Capture\Research\archery\Archery pilot2.trc
DataRate	CameraRate	NumFrames	NumMarkers	Units	OrigDataRate	OrigDataStartFrame	OrigNumFrames
100.00	100.00	      38	3	mm	100.00	563	      1500
Frame#	Time	Marker 1			Marker 2			Marker 3			
		X1	Y1	Z1	X2	Y2	Z2	X3	Y3	Z3	

563	5.620	616.05078	592.73236	1531.56763	704.41571	585.65265	1483.50879	640.50897	533.26154	1404.51929	
564	5.630	616.37268	592.65833	1530.69104	704.61267	585.62439	1482.48242	640.58484	533.23694	1403.61426	
565	5.640	616.67859	592.56451	1529.82471	704.78503	585.59113	1481.45935	640.65985	533.19415	1402.71838	
566	5.650	616.97443	592.46368	1528.96155	704.94250	585.55042	1480.44409	640.72577	533.14038	1401.83301	
567	5.660	617.25916	592.36444	1528.09961	705.09656	585.49908	1479.44055	640.77600	533.07874	1400.95435	
568	5.670	617.52911	592.27179	1527.24170	705.25818	585.43469	1478.45068	640.80933	533.00378	1400.07788	
569	5.680	617.78229	592.19061	1526.38953	705.43744	585.35742	1477.47522	640.82532	532.91815	1399.20471	
570	5.690	618.01733	592.12494	1525.54102	705.64191	585.27112	1476.51282	640.82446	532.83447	1398.33704	
571	5.700	618.23486	592.07599	1524.69543	705.87115	585.18237	1475.56018	640.81189	532.75891	1397.47351	
572	5.710	618.43927	592.04388	1523.85730	706.11365	585.09705	1474.61450	640.79608	532.68732	1396.61389	
573	5.720	618.63696	592.02802	1523.02991	706.35181	585.01910	1473.67676	640.78381	532.61908	1395.76465	
574	5.730	618.83344	592.02411	1522.21252	706.56860	584.95007	1472.74915	640.77881	532.55743	1394.93408	
575	5.740	619.03284	592.02454	1521.40601	706.75323	584.88849	1471.83508	640.78693	532.49896	1394.12671	
576	5.750	619.23840	592.02142	1520.61743	706.90338	584.83087	1470.94019	640.81708	532.43604	1393.34436	
577	5.760	619.45105	592.00928	1519.85303	707.02209	584.77374	1470.07019	640.87085	532.36902	1392.58740	
578	5.770	619.66827	591.98462	1519.11340	707.11426	584.71295	1469.22998	640.93616	532.30847	1391.85425	
579	5.780	619.88416	591.94543	1518.39539	707.18573	584.64319	1468.42090	640.99506	532.26654	1391.13843	
580	5.790	620.09192	591.89337	1517.69556	707.24292	584.56067	1467.63916	641.03766	532.24640	1390.43030	
581	5.800	620.28754	591.83612	1517.01086	707.29224	584.46625	1466.87842	641.06586	532.23621	1389.72168	
582	5.810	620.46918	591.78473	1516.33801	707.33850	584.36566	1466.13306	641.08716	532.21509	1389.01050	
583	5.820	620.63403	591.74701	1515.67371	707.38428	584.26630	1465.39771	641.10474	532.17004	1388.30212	
584	5.830	620.77734	591.72290	1515.01563	707.43036	584.17310	1464.66785	641.11609	532.10675	1387.60437	
585	5.840	620.89648	591.70782	1514.36511	707.47583	584.08765	1463.94116	641.11804	532.04376	1386.92310	
586	5.850	620.99500	591.69818	1513.72815	707.51703	584.00891	1463.21948	641.11005	531.99707	1386.26111	
587	5.860	621.08167	591.69415	1513.11353	707.54974	583.93335	1462.50745	641.09277	531.97101	1385.61841	
588	5.870	621.16376	591.69690	1512.52576	707.57306	583.85791	1461.81042	641.06732	531.95947	1384.99329	
589	5.880	621.24200	591.70502	1511.96155	707.59015	583.78497	1461.13342	641.03693	531.95276	1384.38354	
590	5.890	621.31232	591.71460	1511.41211	707.60571	583.72314	1460.48206	641.00537	531.94623	1383.78918	
591	5.900	621.36981	591.72174	1510.87073	707.62189	583.68048	1459.86133	640.97272	531.94171	1383.21545	
592	5.910	621.41321	591.72510	1510.33948	707.63770	583.65839	1459.27356	640.93445	531.94385	1382.66943	
593	5.920	621.44623	591.72711	1509.82886	707.65051	583.65222	1458.71802	640.88562	531.95892	1382.15637	
594	5.930	621.47632	591.73157	1509.35425	707.65735	583.65723	1458.19556	640.82446	531.99750	1381.67957	
595	5.940	621.50952	591.74109	1508.92773	707.65430	583.67267	1457.70972	640.75269	532.07233	1381.24182	
596	5.950	621.54565	591.75610	1508.55261	707.63666	583.70087	1457.26550	640.67346	532.18921	1380.84534	
597	5.960	621.57739	591.77716	1508.22144	707.59998	583.74573	1456.86462	640.58978	532.34082	1380.49048	
598	5.970	621.59308	591.80658	1507.92017	707.54108	583.81274	1456.50354	640.50269	532.51044	1380.17578	
599	5.980	621.58026	591.84796	1507.63367	707.45691	583.90833	1456.17419	640.41101	532.68127	1379.89734	
600	5.990	621.52875	591.90424	1507.35193	707.34314	584.03473	1455.86719	640.31268	532.84235	1379.64709	
